<?xml version="1.0" encoding="utf-8"?>
<!-- Heart icon by Arthur Shlain from Usefulicons.com -->
<svg xmlns="http://www.w3.org/2000/svg" xmlns:xlink="http://www.w3.org/1999/xlink" xml:space="preserve" version="1.1" x="0px" y="0px" viewBox="0 0 100 100" width="400px" height="400px"><path d="M67.5,15C60.43,15,54.125,18.264,50,23.363C45.875,18.264,39.57,15,32.5,15C20.074,15,10,25.074,10,37.5C10,58.2,35.363,70.363,50,85C64.637,70.363,90,58.2,90,37.5C90,25.074,79.926,15,67.5,15ZM35,25L32.5,25C25.607,25,20,30.607,20,37.5L20,40L15,40L15,37.5C15,27.851,22.851,20,32.5,20L35,20L35,25Z" stroke="none"></path></svg>